<?xml version="1.0" standalone="no"?>
<!DOCTYPE svg PUBLIC "-//W3C//DTD SVG 20010904//EN"
 "http://www.w3.org/TR/2001/REC-SVG-20010904/DTD/svg10.dtd">
<svg version="1.0" xmlns="http://www.w3.org/2000/svg"
 width="64.000000pt" height="64.000000pt" viewBox="0 0 64.000000 64.000000"
 preserveAspectRatio="xMidYMid meet">

<g transform="translate(0.000000,64.000000) scale(0.100000,-0.100000)"
fill="#000000" stroke="none">
<path d="M119 592 l-24 -20 0 -252 0 -252 24 -19 c21 -17 41 -19 201 -19 241
0 224 -17 228 222 5 232 -1 280 -38 321 l-28 32 -169 3 c-156 3 -171 2 -194
-16z m381 -52 c15 -28 13 -32 -17 -28 -24 2 -29 8 -31 36 -3 31 -2 33 17 22
11 -6 25 -19 31 -30z m-260 -195 c0 -8 -9 -15 -20 -15 -11 0 -20 7 -20 15 0 8
9 15 20 15 11 0 20 -7 20 -15z m200 0 c0 -12 -14 -15 -69 -15 -65 0 -90 8 -74
24 3 3 37 6 75 6 54 0 68 -3 68 -15z m-202 -77 c-3 -7 -11 -13 -18 -13 -7 0
-15 6 -17 13 -3 7 4 12 17 12 13 0 20 -5 18 -12z m200 0 c-6 -18 -130 -18
-135 0 -4 9 14 12 67 12 53 0 71 -3 68 -12z m-198 -73 c0 -8 -9 -15 -20 -15
-11 0 -20 7 -20 15 0 8 9 15 20 15 11 0 20 -7 20 -15z m200 0 c0 -12 -14 -15
-69 -15 -65 0 -90 8 -74 24 3 3 37 6 75 6 54 0 68 -3 68 -15z"/>
</g>
</svg>
